<svg width="20" height="20" viewBox="0 0 20 20" fill="none" xmlns="http://www.w3.org/2000/svg">
<path d="M1.66699 5.83342L5.34199 2.15842C5.49704 2.00244 5.68142 1.8787 5.88452 1.79431C6.08761 1.70993 6.3054 1.66657 6.52533 1.66675H13.4753C13.6953 1.66657 13.913 1.70993 14.1161 1.79431C14.3192 1.8787 14.5036 2.00244 14.6587 2.15842L18.3337 5.83342" stroke="#36F4A4" stroke-width="1.29" stroke-linecap="round" stroke-linejoin="round"/>
<path d="M3.33301 10V16.6667C3.33301 17.1087 3.5086 17.5326 3.82116 17.8452C4.13372 18.1577 4.55765 18.3333 4.99967 18.3333H14.9997C15.4417 18.3333 15.8656 18.1577 16.1782 17.8452C16.4907 17.5326 16.6663 17.1087 16.6663 16.6667V10" stroke="#36F4A4" stroke-width="1.29" stroke-linecap="round" stroke-linejoin="round"/>
<path d="M12.5 18.3333V14.9999C12.5 14.5579 12.3244 14.134 12.0118 13.8214C11.6993 13.5088 11.2754 13.3333 10.8333 13.3333H9.16667C8.72464 13.3333 8.30072 13.5088 7.98816 13.8214C7.6756 14.134 7.5 14.5579 7.5 14.9999V18.3333" stroke="#36F4A4" stroke-width="1.29" stroke-linecap="round" stroke-linejoin="round"/>
<path d="M1.66699 5.83325H18.3337" stroke="#36F4A4" stroke-width="1.29" stroke-linecap="round" stroke-linejoin="round"/>
<path d="M18.3337 5.83325V8.33325C18.3337 8.77528 18.1581 9.1992 17.8455 9.51176C17.5329 9.82432 17.109 9.99992 16.667 9.99992C16.1801 9.97312 15.7151 9.78887 15.342 9.47492C15.2426 9.40306 15.123 9.36439 15.0003 9.36439C14.8776 9.36439 14.7581 9.40306 14.6587 9.47492C14.2856 9.78887 13.8205 9.97312 13.3337 9.99992C12.8468 9.97312 12.3818 9.78887 12.0087 9.47492C11.9092 9.40306 11.7897 9.36439 11.667 9.36439C11.5443 9.36439 11.4248 9.40306 11.3253 9.47492C10.9522 9.78887 10.4872 9.97312 10.0003 9.99992C9.51344 9.97312 9.04843 9.78887 8.67533 9.47492C8.57589 9.40306 8.45634 9.36439 8.33366 9.36439C8.21098 9.36439 8.09142 9.40306 7.99199 9.47492C7.61888 9.78887 7.15388 9.97312 6.66699 9.99992C6.1801 9.97312 5.7151 9.78887 5.34199 9.47492C5.24256 9.40306 5.123 9.36439 5.00033 9.36439C4.87765 9.36439 4.75809 9.40306 4.65866 9.47492C4.28555 9.78887 3.82055 9.97312 3.33366 9.99992C2.89163 9.99992 2.46771 9.82432 2.15515 9.51176C1.84259 9.1992 1.66699 8.77528 1.66699 8.33325V5.83325" stroke="#36F4A4" stroke-width="1.29" stroke-linecap="round" stroke-linejoin="round"/>
</svg>
