<svg width="20" height="20" viewBox="0 0 20 20" fill="none" xmlns="http://www.w3.org/2000/svg">
<path d="M4.83366 9.4165L1.66699 18.3332L10.5837 15.1748" stroke="#36F4A4" stroke-width="1.29167" stroke-linecap="round" stroke-linejoin="round"/>
<path d="M3.33301 2.5H3.34161" stroke="#36F4A4" stroke-width="1.29167" stroke-linecap="round" stroke-linejoin="round"/>
<path d="M18.333 6.66675H18.3416" stroke="#36F4A4" stroke-width="1.29167" stroke-linecap="round" stroke-linejoin="round"/>
<path d="M12.5 1.66675H12.5086" stroke="#36F4A4" stroke-width="1.29167" stroke-linecap="round" stroke-linejoin="round"/>
<path d="M18.333 16.6667H18.3416" stroke="#36F4A4" stroke-width="1.29167" stroke-linecap="round" stroke-linejoin="round"/>
<path d="M18.3337 1.66675L16.467 2.29175C15.9356 2.46874 15.4823 2.82478 15.1843 3.29902C14.8864 3.77325 14.7625 4.33624 14.8337 4.89175C14.917 5.60841 14.3587 6.25008 13.6253 6.25008H13.3087C12.592 6.25008 11.9753 6.75008 11.842 7.45008L11.667 8.33341" stroke="#36F4A4" stroke-width="1.29167" stroke-linecap="round" stroke-linejoin="round"/>
<path d="M18.3337 10.8334L17.6503 10.5584C16.9337 10.275 16.1337 10.725 16.0003 11.4834C15.9087 12.0667 15.4003 12.5 14.8087 12.5H14.167" stroke="#36F4A4" stroke-width="1.29167" stroke-linecap="round" stroke-linejoin="round"/>
<path d="M9.16667 1.66675L9.44167 2.35008C9.725 3.06675 9.275 3.86675 8.51667 4.00008C7.93333 4.08341 7.5 4.60008 7.5 5.19175V5.83341" stroke="#36F4A4" stroke-width="1.29167" stroke-linecap="round" stroke-linejoin="round"/>
<path d="M9.16741 10.8334C10.7757 12.4418 11.5257 14.3084 10.8341 15.0001C10.1424 15.6918 8.27575 14.9418 6.66741 13.3334C5.05908 11.7251 4.30908 9.85843 5.00075 9.16676C5.69241 8.4751 7.55908 9.2251 9.16741 10.8334Z" stroke="#36F4A4" stroke-width="1.29167" stroke-linecap="round" stroke-linejoin="round"/>
</svg>
