<svg width="20" height="20" viewBox="0 0 20 20" fill="none" xmlns="http://www.w3.org/2000/svg">
<path d="M1.66797 10H4.16797" stroke="#36F4A4" stroke-width="1.29" stroke-linecap="round" stroke-linejoin="round"/>
<path d="M15.832 10H18.332" stroke="#36F4A4" stroke-width="1.29" stroke-linecap="round" stroke-linejoin="round"/>
<path d="M10 1.66675V4.16675" stroke="#36F4A4" stroke-width="1.29" stroke-linecap="round" stroke-linejoin="round"/>
<path d="M10 15.8333V18.3333" stroke="#36F4A4" stroke-width="1.29" stroke-linecap="round" stroke-linejoin="round"/>
<path d="M10.0013 15.8329C13.223 15.8329 15.8346 13.2213 15.8346 9.99959C15.8346 6.77793 13.223 4.16626 10.0013 4.16626C6.77964 4.16626 4.16797 6.77793 4.16797 9.99959C4.16797 13.2213 6.77964 15.8329 10.0013 15.8329Z" stroke="#36F4A4" stroke-width="1.29" stroke-linecap="round" stroke-linejoin="round"/>
<path d="M10 12.5C11.3807 12.5 12.5 11.3807 12.5 10C12.5 8.61929 11.3807 7.5 10 7.5C8.61929 7.5 7.5 8.61929 7.5 10C7.5 11.3807 8.61929 12.5 10 12.5Z" stroke="#36F4A4" stroke-width="1.29" stroke-linecap="round" stroke-linejoin="round"/>
</svg>
