<svg width="20" height="21" viewBox="0 0 20 21" fill="none" xmlns="http://www.w3.org/2000/svg">
<path d="M9.16667 13.0001H10.8333C11.2754 13.0001 11.6993 12.8245 12.0118 12.5119C12.3244 12.1994 12.5 11.7754 12.5 11.3334C12.5 10.8914 12.3244 10.4675 12.0118 10.1549C11.6993 9.84234 11.2754 9.66675 10.8333 9.66675H8.33333C7.83333 9.66675 7.41667 9.83342 7.16667 10.1667L2.5 14.6667" stroke="#36F4A4" stroke-width="1.29" stroke-linecap="round" stroke-linejoin="round"/>
<path d="M5.83301 18L7.16634 16.8333C7.41634 16.5 7.83301 16.3333 8.33301 16.3333H11.6663C12.583 16.3333 13.4163 16 13.9997 15.3333L17.833 11.6666C18.1546 11.3628 18.3423 10.9436 18.3548 10.5013C18.3673 10.059 18.2036 9.62989 17.8997 9.30832C17.5958 8.98674 17.1766 8.79906 16.7343 8.78656C16.292 8.77405 15.8629 8.93776 15.5413 9.24165L12.0413 12.4916" stroke="#36F4A4" stroke-width="1.29" stroke-linecap="round" stroke-linejoin="round"/>
<path d="M1.66699 13.8333L6.66699 18.8333" stroke="#36F4A4" stroke-width="1.29" stroke-linecap="round" stroke-linejoin="round"/>
<path d="M13.3327 10.4168C14.6674 10.4168 15.7493 9.33485 15.7493 8.00016C15.7493 6.66547 14.6674 5.5835 13.3327 5.5835C11.998 5.5835 10.916 6.66547 10.916 8.00016C10.916 9.33485 11.998 10.4168 13.3327 10.4168Z" stroke="#36F4A4" stroke-width="1.29" stroke-linecap="round" stroke-linejoin="round"/>
<path d="M5 7.16675C6.38071 7.16675 7.5 6.04746 7.5 4.66675C7.5 3.28604 6.38071 2.16675 5 2.16675C3.61929 2.16675 2.5 3.28604 2.5 4.66675C2.5 6.04746 3.61929 7.16675 5 7.16675Z" stroke="#36F4A4" stroke-width="1.29" stroke-linecap="round" stroke-linejoin="round"/>
</svg>
