<svg width="20" height="20" viewBox="0 0 20 20" fill="none" xmlns="http://www.w3.org/2000/svg">
<path d="M10.0003 18.3334C14.6027 18.3334 18.3337 14.6025 18.3337 10.0001C18.3337 5.39771 14.6027 1.66675 10.0003 1.66675C5.39795 1.66675 1.66699 5.39771 1.66699 10.0001C1.66699 14.6025 5.39795 18.3334 10.0003 18.3334Z" stroke="#36F4A4" stroke-width="1.29" stroke-linecap="round" stroke-linejoin="round"/>
<path d="M13.3337 6.66675H8.33366C7.89163 6.66675 7.46771 6.84234 7.15515 7.1549C6.84259 7.46746 6.66699 7.89139 6.66699 8.33341C6.66699 8.77544 6.84259 9.19937 7.15515 9.51193C7.46771 9.82449 7.89163 10.0001 8.33366 10.0001H11.667C12.109 10.0001 12.5329 10.1757 12.8455 10.4882C13.1581 10.8008 13.3337 11.2247 13.3337 11.6667C13.3337 12.1088 13.1581 12.5327 12.8455 12.8453C12.5329 13.1578 12.109 13.3334 11.667 13.3334H6.66699" stroke="#36F4A4" stroke-width="1.29" stroke-linecap="round" stroke-linejoin="round"/>
<path d="M10 15V5" stroke="#36F4A4" stroke-width="1.29" stroke-linecap="round" stroke-linejoin="round"/>
</svg>
